<?xml version="1.0" standalone="no"?>
<!DOCTYPE svg PUBLIC "-//W3C//DTD SVG 1.1//EN" "http://www.w3.org/Graphics/SVG/1.1/DTD/svg11.dtd" >
<svg xmlns="http://www.w3.org/2000/svg">
<metadata></metadata>
<defs>
<font id="venera300" horiz-adv-x="2013" >
<font-face units-per-em="2048" ascent="1536" descent="-512" />
<missing-glyph horiz-adv-x="677" />
<glyph horiz-adv-x="2048" />
<glyph horiz-adv-x="2048" />
<glyph unicode="&#xd;" horiz-adv-x="2048" />
<glyph unicode=" "  horiz-adv-x="677" />
<glyph unicode="&#x09;" horiz-adv-x="677" />
<glyph unicode="&#xa0;" horiz-adv-x="677" />
<glyph unicode="!" horiz-adv-x="524" d="M209 0v229h106v-229h-106zM213 1401h96l-8 -1010h-78z" />
<glyph unicode="&#x22;" horiz-adv-x="868" d="M184 838v563h90v-563h-90zM592 838v563h92v-563h-92z" />
<glyph unicode="#" horiz-adv-x="1656" d="M119 395v72h313l86 444h-305v72h317l64 324h72l-62 -324h559l62 324h73l-63 -324h301v-72h-313l-86 -444h305v-72h-320l-61 -329h-74l64 329h-559l-64 -329h-72l62 329h-299zM504 467h559l86 444h-559z" />
<glyph unicode="$" horiz-adv-x="1918" d="M115 0v82h1220q198 0 299 70.5t101 207.5q0 134 -98.5 202t-319.5 87l-703 60q-232 20 -346 108.5t-114 249.5q0 165 115 249.5t315 84.5h399v233h78v-233h661v-82h-1144q-162 0 -248 -62t-86 -188q0 -129 93.5 -194t299.5 -82l692 -60q255 -22 376.5 -108t121.5 -260 q0 -175 -124.5 -270t-371.5 -95h-332v-299h-77v299h-807z" />
<glyph unicode="%" horiz-adv-x="2093" d="M94 1071q0 164 102.5 257t299.5 93q198 0 300.5 -93t102.5 -257t-102.5 -257t-300.5 -93q-197 0 -299.5 93t-102.5 257zM170 1071q0 -40 7 -76t28 -76t55.5 -68.5t95 -47.5t140.5 -19q81 0 141.5 19t95 47.5t56 68.5t28 76t6.5 76t-6.5 76t-28 76t-56 68.5t-95 47.5 t-141.5 19q-80 0 -140.5 -19t-95 -47.5t-55.5 -68.5t-28 -76t-7 -76zM330 0l1335 1401h98l-1335 -1401h-98zM1194 330q0 164 102 257t299 93q198 0 301 -93t103 -257q0 -163 -103 -256.5t-301 -93.5q-196 0 -298.5 93.5t-102.5 256.5zM1270 330q0 -40 6.5 -75.5t28 -75.5 t55.5 -69t94.5 -48t140.5 -19q81 0 142 19t95.5 48t55.5 69t28 75.5t7 75.5t-7 76t-28 76t-55.5 68t-95.5 47t-142 19q-80 0 -140.5 -19t-95 -47t-55.5 -68t-27.5 -76t-6.5 -76z" />
<glyph unicode="&#x26;" horiz-adv-x="1957" d="M143 369q0 35 7 71.5t28 82t53.5 83t90.5 69.5t133 46q-133 28 -204 111t-71 217q0 75 25 137t77 111t140.5 76.5t206.5 27.5h970v-82h-974q-169 0 -260 -74t-91 -207q0 -135 90.5 -206.5t260.5 -71.5h1243v-80h-180v-309q0 -169 -119 -270t-336 -101h-629 q-219 0 -340 100t-121 269zM238 379q0 -57 19.5 -107.5t60 -94t113.5 -69.5t169 -26h637q93 0 162.5 23.5t106 56t59 76.5t28.5 75.5t6 61.5v305h-999q-77 0 -140 -18.5t-103.5 -48t-68 -69.5t-39 -81t-11.5 -84z" />
<glyph unicode="'" horiz-adv-x="458" d="M184 838v563h90v-563h-90z" />
<glyph unicode="(" horiz-adv-x="559" d="M133 680q0 234 60.5 469t173.5 426h86q-114 -191 -175 -425.5t-61 -469.5t61 -469.5t175 -425.5h-86q-113 191 -173.5 426t-60.5 469z" />
<glyph unicode=")" horiz-adv-x="559" d="M106 -215q114 190 174 424.5t60 470.5t-60 470.5t-174 424.5h87q113 -191 173 -425.5t60 -469.5t-60 -469.5t-173 -425.5h-87z" />
<glyph unicode="*" horiz-adv-x="1107" d="M139 1128l25 76l301 -119l-12 -34zM272 717l207 250l31 -23l-172 -274zM514 1460h80l-21 -323h-36zM598 944l29 21l209 -248l-66 -47zM643 1083l301 121l25 -76l-314 -79z" />
<glyph unicode="+" horiz-adv-x="1486" d="M113 672v73h594v496h73v-496h594v-73h-594v-494h-73v494h-594z" />
<glyph unicode="," horiz-adv-x="530" d="M109 -213l129 463h104l-152 -463h-81z" />
<glyph unicode="-" horiz-adv-x="1165" d="M184 670v80h797v-80h-797z" />
<glyph unicode="." horiz-adv-x="475" d="M184 0v240h107v-240h-107z" />
<glyph unicode="/" horiz-adv-x="1058" d="M72 -215l829 1790h86l-831 -1790h-84z" />
<glyph unicode="0" horiz-adv-x="2095" d="M139 700q0 382 220.5 549.5t689.5 167.5t688 -167.5t219 -549.5q0 -258 -100 -417t-297.5 -230t-509.5 -71q-469 0 -689.5 168t-220.5 550zM233 700q0 -174 48 -294t150.5 -194.5t252.5 -108t365 -33.5q214 0 364 33.5t252.5 108t150.5 194.5t48 294q0 342 -194 486.5 t-621 144.5q-214 0 -364.5 -33.5t-253 -108.5t-150.5 -195t-48 -294z" />
<glyph unicode="1" horiz-adv-x="894" d="M68 1319v82h612v-1401h-92v1319h-520z" />
<glyph unicode="2" horiz-adv-x="1857" d="M131 0v199q0 194 240 314q150 75 479 151q30 7 133 30q66 15 107 25t101 26t97.5 29t86 32t78.5 38t62.5 44t50 52t29 60.5t11.5 70.5q0 110 -87 177t-247 67h-1122v86h1120q200 0 317 -87t117 -239q0 -66 -22.5 -121t-69 -98.5t-103 -77.5t-141 -64t-165 -52.5 t-191.5 -47.5q-296 -68 -360 -86q-276 -77 -366 -182q-53 -63 -53 -141v-121h1496v-84h-1598z" />
<glyph unicode="3" horiz-adv-x="1871" d="M145 0v84h1131q92 0 164 25.5t114.5 68t64 93t21.5 106.5q0 39 -10 78t-36 80.5t-65.5 73t-105 51.5t-147.5 20h-1090v84h1065q168 0 259.5 71.5t91.5 204.5q0 131 -91 204t-260 73h-1087v84h1077q118 0 206.5 -28t141 -77t78 -110.5t25.5 -134.5q0 -130 -72 -214 t-203 -114q149 -32 231.5 -126.5t82.5 -229.5q0 -163 -124 -265t-339 -102h-1123z" />
<glyph unicode="4" horiz-adv-x="1986" d="M94 791q0 59 29 137l174 473h94l-176 -483q-25 -62 -25 -123q0 -30 6 -58t27 -61.5t55.5 -57.5t96.5 -40.5t145 -16.5h1041v840h92v-840h245v-84h-245v-477h-92v475h-1049q-116 0 -201.5 28.5t-130.5 76.5t-65.5 100.5t-20.5 110.5z" />
<glyph unicode="5" horiz-adv-x="1894" d="M129 0v86h1151q197 0 302.5 79.5t105.5 223.5q0 138 -102.5 214.5t-299.5 76.5h-1081l-29 31l55 690h1444v-86h-1362l-43 -551h1014q240 0 370 -96.5t130 -278.5q0 -181 -130.5 -285t-377.5 -104h-1147z" />
<glyph unicode="6" horiz-adv-x="1964" d="M188 375v651q0 173 119 274t338 101h1079v-84h-1083q-93 0 -162.5 -23.5t-105 -55.5t-57 -76t-26.5 -74.5t-5 -61.5v-276h1114q98 0 176.5 -21t130.5 -56t87 -84t50 -102t15 -112q0 -170 -119 -272.5t-340 -102.5h-754q-121 0 -212.5 31.5t-143 85.5t-76.5 118.5 t-25 139.5zM285 375q0 -56 18.5 -105.5t58 -93t111.5 -69t168 -25.5h762q96 0 168.5 25.5t112.5 68.5t59.5 93t19.5 106t-19.5 106t-59.5 93t-112.5 68.5t-168.5 25.5h-1118v-293z" />
<glyph unicode="7" horiz-adv-x="1728" d="M68 1319v82h1574v-197q0 -80 -30 -152.5t-80.5 -129t-116.5 -109t-138.5 -99t-145 -92.5t-138.5 -95.5t-116.5 -101.5t-80.5 -117.5t-30 -137.5v-170h-98v170q0 80 30 152t80.5 129t116.5 110.5t138.5 100.5t145 93t138.5 95t116.5 100t80.5 114t30 132v123h-1476z" />
<glyph unicode="8" horiz-adv-x="1921" d="M143 365q0 137 85.5 227.5t238.5 118.5q-134 30 -208.5 115t-74.5 218q0 74 26 136.5t79 113t143 79t209 28.5h639q119 0 209 -28.5t143 -79t79 -113t26 -136.5q0 -133 -74.5 -218t-208.5 -115q153 -28 238.5 -118.5t85.5 -227.5q0 -169 -125 -267t-346 -98h-693 q-222 0 -346.5 99.5t-124.5 265.5zM236 375q0 -56 20 -106t61.5 -93t116.5 -68.5t174 -25.5h705q99 0 174 25.5t117 68.5t62 93t20 106t-20 106t-62 93.5t-117 69.5t-174 26h-705q-99 0 -174 -26t-116.5 -69.5t-61.5 -93.5t-20 -106zM276 1034q0 -133 94.5 -208.5 t262.5 -75.5h655q168 0 262.5 75.5t94.5 208.5t-94 210t-263 77h-655q-169 0 -263 -77t-94 -210z" />
<glyph unicode="9" horiz-adv-x="1980" d="M123 1018q0 176 120 279.5t343 103.5h747q223 0 341 -101.5t118 -273.5v-651q0 -170 -119.5 -272.5t-339.5 -102.5h-1155v84h1157q96 0 168 25t113 68t60.5 92.5t19.5 105.5v258h-1110q-223 0 -343 104t-120 281zM217 1018q0 -31 5.5 -63t28 -77.5t59 -79.5t107.5 -58.5 t165 -24.5h1114v311q0 31 -5.5 62t-27.5 75t-58.5 76.5t-106.5 56t-163 23.5h-753q-94 0 -165 -24.5t-107.5 -58t-59 -78.5t-28 -77t-5.5 -63z" />
<glyph unicode=":" horiz-adv-x="473" d="M184 0v256h105v-256h-105zM184 1024v256h105v-256h-105z" />
<glyph unicode=";" horiz-adv-x="602" d="M152 -213l131 463h104l-151 -463h-84zM264 1024v256h105v-256h-105z" />
<glyph unicode="&#x3c;" horiz-adv-x="1189" d="M98 688v43l910 457v-86l-799 -391l799 -394v-86z" />
<glyph unicode="=" horiz-adv-x="1630" d="M184 362v78h1262v-78h-1262zM184 983v78h1262v-78h-1262z" />
<glyph unicode="&#x3e;" horiz-adv-x="1189" d="M182 231v86l799 394l-799 391v86l910 -457v-43z" />
<glyph unicode="?" horiz-adv-x="1404" d="M76 1317v84h844q186 0 287.5 -79t101.5 -222q0 -213 -230 -305l-377 -150q-53 -22 -72.5 -58t-19.5 -89v-113h-88v119q0 77 29.5 129t101.5 80l387 155q177 71 177 230q0 29 -6 56t-25 58t-49.5 53t-84.5 37t-126 15h-850zM516 0v229h98v-229h-98z" />
<glyph unicode="@" horiz-adv-x="2148" d="M145 502v336q0 333 214 503t636 170h170q417 0 633.5 -167t216.5 -506v-516h-1001q-93 0 -160 11t-125.5 40.5t-88.5 87.5t-30 145v121q0 69 20.5 120t55 82t88 49.5t110 25t130.5 6.5h131q72 0 127 -6t109.5 -23.5t89.5 -48t57 -82.5t22 -123v-334h389v449 q0 596 -774 596h-170q-774 0 -774 -596v-344q0 -598 774 -598h783v-74h-783q-419 0 -634.5 168t-215.5 508zM688 606q0 -64 22 -107t67 -65.5t99.5 -31.5t133.5 -9h463v334q0 55 -17.5 94t-45 61.5t-72 35t-87.5 16.5t-102 4h-139q-163 0 -242.5 -45t-79.5 -166v-121z" />
<glyph unicode="A" d="M84 0l539 1133q70 149 161 216.5t222 67.5q132 0 223 -67.5t162 -216.5l538 -1133h-98l-215 453h-1219l-215 -453h-98zM438 535h1137l-275 575q-51 110 -119.5 167.5t-174.5 57.5q-104 0 -173 -57.5t-120 -167.5z" />
<glyph unicode="B" horiz-adv-x="2072" d="M215 0v1401h1239q117 0 205 -28t138.5 -78t74.5 -111.5t24 -134.5q0 -129 -69.5 -213.5t-192.5 -112.5q105 -22 174.5 -79t98 -125.5t28.5 -147.5q0 -72 -25 -135.5t-77 -117.5t-143 -86t-211 -32h-1264zM303 84h1186q79 0 141.5 17.5t102 46.5t65.5 68t36.5 78.5 t10.5 82.5q0 56 -19 107.5t-59 97t-111.5 73t-166.5 27.5h-1186v-598zM303 762h1161q165 0 254.5 72t89.5 206q0 132 -87 204.5t-257 72.5h-1161v-555z" />
<glyph unicode="C" horiz-adv-x="1974" d="M141 702q0 356 156.5 527.5t495.5 171.5h1095v-90h-1095q-297 0 -427 -147t-130 -462q0 -317 130 -464.5t427 -147.5h1095v-90h-1095q-336 0 -494 171t-158 531z" />
<glyph unicode="D" horiz-adv-x="2136" d="M215 0v1401h1128q340 0 496 -172.5t156 -528.5q0 -360 -158 -530t-494 -170h-1128zM307 90h1036q297 0 428.5 149t131.5 461t-131 461.5t-429 149.5h-1036v-1221z" />
<glyph unicode="E" d="M141 702q0 356 156.5 527.5t495.5 171.5h1093v-88h-1093q-286 0 -420.5 -139.5t-139.5 -432.5h1616v-84h-1616q6 -292 140 -430.5t420 -138.5h1093v-88h-1093q-339 0 -495.5 172t-156.5 530z" />
<glyph unicode="F" horiz-adv-x="1949" d="M199 0v764q0 234 72.5 372t232 201.5t430.5 63.5h932v-90h-932q-183 0 -303.5 -27.5t-197.5 -93.5t-109.5 -168t-32.5 -258v-98h1515v-84h-1515v-582h-92z" />
<glyph unicode="G" horiz-adv-x="2052" d="M141 702q0 356 156.5 527.5t495.5 171.5h1089v-90h-1089q-297 0 -427 -147t-130 -462q0 -317 130 -464.5t427 -147.5h1011v578h92v-668h-1103q-339 0 -495.5 172t-156.5 530z" />
<glyph unicode="H" horiz-adv-x="2072" d="M215 0v1401h92v-658h1458v658h93v-1401h-93v659h-1458v-659h-92z" />
<glyph unicode="I" horiz-adv-x="520" d="M215 0v1401h90v-1401h-90z" />
<glyph unicode="J" horiz-adv-x="1562" d="M29 0v90h684q293 0 424 106t131 343v862h92v-862q0 -280 -156.5 -409.5t-490.5 -129.5h-684z" />
<glyph unicode="K" horiz-adv-x="1871" d="M215 0v1401h90v-651h662q118 0 225.5 71.5t175.5 163.5l307 416h119l-348 -457q-63 -83 -148.5 -144t-177.5 -89q173 -51 336 -248l381 -463h-123l-338 418q-198 248 -399 248h-672v-666h-90z" />
<glyph unicode="L" horiz-adv-x="1777" d="M203 539v862h90v-862q0 -237 131 -343t424 -106h901v-90h-901q-334 0 -489.5 129.5t-155.5 409.5z" />
<glyph unicode="M" horiz-adv-x="2398" d="M215 0v1401h82q37 0 70 -37l831 -944l834 944q33 37 69 37h82v-1401h-88v1300l-862 -974h-68l-862 974v-1300h-88z" />
<glyph unicode="N" horiz-adv-x="2203" d="M215 0v1401h102q61 0 107 -4.5t96 -24.5t84 -36.5t87 -66t88 -85.5t104 -122t117 -149t145 -192q249 -329 324 -416q118 -137 208 -179q75 -36 189 -36h30v1311h93v-1401h-101q-68 0 -122 10.5t-99 23.5t-99.5 57.5t-94 79.5t-113.5 125t-126.5 158t-162.5 212 q-259 341 -340 434q-117 134 -206 175q-73 34 -187 34h-31v-1309h-92z" />
<glyph unicode="O" horiz-adv-x="2174" d="M137 700q0 125 22 225t63 174.5t104.5 129.5t139.5 91t176 57.5t206.5 30.5t238.5 9t238.5 -9t207 -30.5t176.5 -57.5t139.5 -91t104 -129.5t63 -174.5t22.5 -225t-22.5 -225.5t-63 -175t-104.5 -129.5t-139.5 -91t-176 -58t-207 -30.5t-238.5 -8.5t-238 8.5t-207 30.5 t-176.5 58t-139.5 91t-104 129.5t-62.5 175t-22.5 225.5zM229 700q0 -112 20 -201.5t55.5 -155t93 -113.5t125 -79t159.5 -49t187.5 -25t217.5 -7q106 0 192 5.5t169.5 18.5t147.5 35.5t122 56.5t98.5 82t70.5 110t44.5 142.5t14.5 179.5q0 112 -20 201t-55.5 155t-93 114 t-125.5 79t-159.5 49.5t-187.5 25.5t-218 7t-218 -7t-187.5 -25.5t-159 -49.5t-125 -79t-93 -114t-55.5 -155t-20 -201z" />
<glyph unicode="P" horiz-adv-x="1949" d="M215 0v1401h1171q221 0 348.5 -121.5t127.5 -308.5t-127.5 -308.5t-348.5 -121.5h-1079v-541h-92zM307 625h1084q93 0 167 29.5t118.5 79t67.5 110.5t23 127q0 67 -23 127.5t-67.5 110t-118.5 79t-167 29.5h-1084v-692z" />
<glyph unicode="Q" horiz-adv-x="2174" d="M137 700q0 125 22 225t63 174.5t104.5 129.5t139.5 91t176 57.5t206.5 30.5t238.5 9t238.5 -9t207 -30.5t176.5 -57.5t139.5 -91t104 -129.5t63 -174.5t22.5 -225q0 -145 -31 -257t-86 -189t-140.5 -130t-186 -81.5t-230.5 -42.5q57 -18 106.5 -56t106.5 -102l152 -174 h-121l-123 150q-83 100 -161.5 132t-236.5 32q-132 0 -238 8.5t-207 30.5t-176.5 58t-139.5 91t-104 129.5t-62.5 175t-22.5 225.5zM229 700q0 -112 20 -201.5t55.5 -155t93 -113.5t125 -79t159.5 -49t187.5 -25t217.5 -7q106 0 192 5.5t169.5 18.5t147.5 35.5t122 56.5 t98.5 82t70.5 110t44.5 142.5t14.5 179.5q0 112 -20 201t-55.5 155t-93 114t-125.5 79t-159.5 49.5t-187.5 25.5t-218 7t-218 -7t-187.5 -25.5t-159 -49.5t-125 -79t-93 -114t-55.5 -155t-20 -201z" />
<glyph unicode="R" horiz-adv-x="2025" d="M215 0v1401h1192q122 0 215 -33t148 -91t82.5 -130.5t27.5 -157.5q0 -154 -87 -256.5t-239 -130.5q139 -33 213 -126t74 -224v-252h-94v254q0 139 -95 223t-261 84h-1086v-561h-90zM305 643h1106q100 0 176 29.5t118 79.5t62.5 107.5t20.5 121.5q0 65 -19.5 121.5 t-61.5 106.5t-118 79t-178 29h-1106v-674z" />
<glyph unicode="S" horiz-adv-x="1916" d="M104 0v84h1221q196 0 296.5 70.5t100.5 207.5q0 131 -98 199.5t-317 87.5l-701 60q-233 20 -347 107t-114 249q0 167 114.5 251.5t315.5 84.5h1137v-84h-1143q-161 0 -246 -62t-85 -188q0 -124 93 -190.5t296 -83.5l692 -58q254 -22 376 -110t122 -260 q0 -175 -124.5 -270t-371.5 -95h-1217z" />
<glyph unicode="T" horiz-adv-x="1693" d="M25 1317v84h1644v-84h-776v-1317h-92v1317h-776z" />
<glyph unicode="U" horiz-adv-x="2064" d="M197 655v746h90v-746q0 -133 23.5 -227.5t75 -164.5t139 -111t209.5 -60.5t294 -19.5q217 0 357.5 29.5t228.5 100t124 178.5t36 275v746h92v-746q0 -149 -27.5 -258t-87.5 -189.5t-159.5 -129.5t-237 -72.5t-326.5 -23.5q-229 0 -383 34t-256 113.5t-147 207t-45 318.5z " />
<glyph unicode="V" horiz-adv-x="1990" d="M80 1401h100l561 -1163q42 -88 101.5 -128t152.5 -40t152 39.5t102 128.5l561 1163h101l-572 -1190q-56 -117 -136.5 -173t-207.5 -56t-207 55t-137 174z" />
<glyph unicode="W" horiz-adv-x="2908" d="M84 1401h100l494 -1129q51 -119 113 -161.5t155 -42.5q102 0 165.5 43t113.5 143l180 369l-377 778h94l332 -684l332 684h94l-377 -778l180 -369q50 -101 113 -143.5t166 -42.5q92 0 154 42.5t114 161.5l494 1129h100l-512 -1163q-61 -139 -145.5 -197.5t-206.5 -58.5 q-126 0 -210.5 55t-145.5 178l-150 307l-149 -307q-61 -123 -146 -178t-211 -55q-122 0 -206.5 58.5t-145.5 197.5z" />
<glyph unicode="X" horiz-adv-x="1689" d="M39 0l739 721l-715 680h125l613 -582q23 -20 47 -51q15 25 41 51l610 582h127l-713 -680l738 -721h-123l-639 625q-31 31 -43 47l-43 -47l-639 -625h-125z" />
<glyph unicode="Y" horiz-adv-x="1775" d="M27 1401h133l532 -547q154 -158 195 -274q43 119 194 274l535 547h131l-612 -621q-54 -55 -90.5 -98t-73.5 -112t-37 -126v-444h-92v444q0 43 -19 90.5t-54.5 95t-62.5 78.5t-67 72z" />
<glyph unicode="Z" horiz-adv-x="1841" d="M111 1317v84h1599v-123q0 -72 -25 -136.5t-59.5 -112.5t-101.5 -97t-119.5 -80.5t-148 -72t-152 -61.5t-164.5 -59q-295 -104 -416 -164q-236 -118 -288 -261q-17 -45 -17 -95v-55h1520v-84h-1618v123q0 71 23.5 134t57.5 110.5t98.5 95t117.5 79t146 70.5t153.5 61 t167.5 60q87 31 141.5 51t131.5 51t125.5 55.5t106.5 58t93.5 66t67.5 71.5t46.5 83.5t14.5 92.5v55h-1501z" />
<glyph unicode="[" horiz-adv-x="878" d="M207 -215v1790h565v-74h-483v-1642h483v-74h-565z" />
<glyph unicode="\" horiz-adv-x="1058" d="M72 1575h86l829 -1790h-86z" />
<glyph unicode="]" horiz-adv-x="878" d="M106 -141h484v1642h-484v74h566v-1790h-566v74z" />
<glyph unicode="^" horiz-adv-x="1339" d="M147 776l496 709h39l498 -709h-93l-423 602l-424 -602h-93z" />
<glyph unicode="_" horiz-adv-x="1808" d="M176 -172h1460v-76h-1460v76z" />
<glyph unicode="`" horiz-adv-x="1024" d="M315 1913h111l283 -371h-86z" />
<glyph unicode="a" d="M84 0l539 1133q70 149 161 216.5t222 67.5q132 0 223 -67.5t162 -216.5l538 -1133h-98l-215 453h-1219l-215 -453h-98zM438 535h1137l-275 575q-51 110 -119.5 167.5t-174.5 57.5q-104 0 -173 -57.5t-120 -167.5z" />
<glyph unicode="b" horiz-adv-x="2072" d="M215 0v1401h1239q117 0 205 -28t138.5 -78t74.5 -111.5t24 -134.5q0 -129 -69.5 -213.5t-192.5 -112.5q105 -22 174.5 -79t98 -125.5t28.5 -147.5q0 -72 -25 -135.5t-77 -117.5t-143 -86t-211 -32h-1264zM303 84h1186q79 0 141.5 17.5t102 46.5t65.5 68t36.5 78.5 t10.5 82.5q0 56 -19 107.5t-59 97t-111.5 73t-166.5 27.5h-1186v-598zM303 762h1161q165 0 254.5 72t89.5 206q0 132 -87 204.5t-257 72.5h-1161v-555z" />
<glyph unicode="c" horiz-adv-x="1974" d="M141 702q0 356 156.5 527.5t495.5 171.5h1095v-90h-1095q-297 0 -427 -147t-130 -462q0 -317 130 -464.5t427 -147.5h1095v-90h-1095q-336 0 -494 171t-158 531z" />
<glyph unicode="d" horiz-adv-x="2136" d="M215 0v1401h1128q340 0 496 -172.5t156 -528.5q0 -360 -158 -530t-494 -170h-1128zM307 90h1036q297 0 428.5 149t131.5 461t-131 461.5t-429 149.5h-1036v-1221z" />
<glyph unicode="e" d="M141 702q0 356 156.5 527.5t495.5 171.5h1093v-88h-1093q-286 0 -420.5 -139.5t-139.5 -432.5h1616v-84h-1616q6 -292 140 -430.5t420 -138.5h1093v-88h-1093q-339 0 -495.5 172t-156.5 530z" />
<glyph unicode="f" horiz-adv-x="1949" d="M199 0v764q0 234 72.5 372t232 201.5t430.5 63.5h932v-90h-932q-183 0 -303.5 -27.5t-197.5 -93.5t-109.5 -168t-32.5 -258v-98h1515v-84h-1515v-582h-92z" />
<glyph unicode="g" horiz-adv-x="2052" d="M141 702q0 356 156.5 527.5t495.5 171.5h1089v-90h-1089q-297 0 -427 -147t-130 -462q0 -317 130 -464.5t427 -147.5h1011v578h92v-668h-1103q-339 0 -495.5 172t-156.5 530z" />
<glyph unicode="h" horiz-adv-x="2072" d="M215 0v1401h92v-658h1458v658h93v-1401h-93v659h-1458v-659h-92z" />
<glyph unicode="i" horiz-adv-x="520" d="M215 0v1401h90v-1401h-90z" />
<glyph unicode="j" horiz-adv-x="1562" d="M29 0v90h684q293 0 424 106t131 343v862h92v-862q0 -280 -156.5 -409.5t-490.5 -129.5h-684z" />
<glyph unicode="k" horiz-adv-x="1871" d="M215 0v1401h90v-651h662q118 0 225.5 71.5t175.5 163.5l307 416h119l-348 -457q-63 -83 -148.5 -144t-177.5 -89q173 -51 336 -248l381 -463h-123l-338 418q-198 248 -399 248h-672v-666h-90z" />
<glyph unicode="l" horiz-adv-x="1777" d="M203 539v862h90v-862q0 -237 131 -343t424 -106h901v-90h-901q-334 0 -489.5 129.5t-155.5 409.5z" />
<glyph unicode="m" horiz-adv-x="2398" d="M215 0v1401h82q37 0 70 -37l831 -944l834 944q33 37 69 37h82v-1401h-88v1300l-862 -974h-68l-862 974v-1300h-88z" />
<glyph unicode="n" horiz-adv-x="2203" d="M215 0v1401h102q61 0 107 -4.5t96 -24.5t84 -36.5t87 -66t88 -85.5t104 -122t117 -149t145 -192q249 -329 324 -416q118 -137 208 -179q75 -36 189 -36h30v1311h93v-1401h-101q-68 0 -122 10.5t-99 23.5t-99.5 57.5t-94 79.5t-113.5 125t-126.5 158t-162.5 212 q-259 341 -340 434q-117 134 -206 175q-73 34 -187 34h-31v-1309h-92z" />
<glyph unicode="o" horiz-adv-x="2174" d="M137 700q0 125 22 225t63 174.5t104.5 129.5t139.5 91t176 57.5t206.5 30.5t238.5 9t238.5 -9t207 -30.5t176.5 -57.5t139.5 -91t104 -129.5t63 -174.5t22.5 -225t-22.5 -225.5t-63 -175t-104.5 -129.5t-139.5 -91t-176 -58t-207 -30.5t-238.5 -8.5t-238 8.5t-207 30.5 t-176.5 58t-139.5 91t-104 129.5t-62.5 175t-22.5 225.5zM229 700q0 -112 20 -201.5t55.5 -155t93 -113.5t125 -79t159.5 -49t187.5 -25t217.5 -7q106 0 192 5.5t169.5 18.5t147.5 35.5t122 56.5t98.5 82t70.5 110t44.5 142.5t14.5 179.5q0 112 -20 201t-55.5 155t-93 114 t-125.5 79t-159.5 49.5t-187.5 25.5t-218 7t-218 -7t-187.5 -25.5t-159 -49.5t-125 -79t-93 -114t-55.5 -155t-20 -201z" />
<glyph unicode="p" horiz-adv-x="1949" d="M215 0v1401h1171q221 0 348.5 -121.5t127.5 -308.5t-127.5 -308.5t-348.5 -121.5h-1079v-541h-92zM307 625h1084q93 0 167 29.5t118.5 79t67.5 110.5t23 127q0 67 -23 127.5t-67.5 110t-118.5 79t-167 29.5h-1084v-692z" />
<glyph unicode="q" horiz-adv-x="2174" d="M137 700q0 125 22 225t63 174.5t104.5 129.5t139.5 91t176 57.5t206.5 30.5t238.5 9t238.5 -9t207 -30.5t176.5 -57.5t139.5 -91t104 -129.5t63 -174.5t22.5 -225q0 -145 -31 -257t-86 -189t-140.5 -130t-186 -81.5t-230.5 -42.5q57 -18 106.5 -56t106.5 -102l152 -174 h-121l-123 150q-83 100 -161.5 132t-236.5 32q-132 0 -238 8.5t-207 30.5t-176.5 58t-139.5 91t-104 129.5t-62.5 175t-22.5 225.5zM229 700q0 -112 20 -201.5t55.5 -155t93 -113.5t125 -79t159.5 -49t187.5 -25t217.5 -7q106 0 192 5.5t169.5 18.5t147.5 35.5t122 56.5 t98.5 82t70.5 110t44.5 142.5t14.5 179.5q0 112 -20 201t-55.5 155t-93 114t-125.5 79t-159.5 49.5t-187.5 25.5t-218 7t-218 -7t-187.5 -25.5t-159 -49.5t-125 -79t-93 -114t-55.5 -155t-20 -201z" />
<glyph unicode="r" horiz-adv-x="2025" d="M215 0v1401h1192q122 0 215 -33t148 -91t82.5 -130.5t27.5 -157.5q0 -154 -87 -256.5t-239 -130.5q139 -33 213 -126t74 -224v-252h-94v254q0 139 -95 223t-261 84h-1086v-561h-90zM305 643h1106q100 0 176 29.5t118 79.5t62.5 107.5t20.5 121.5q0 65 -19.5 121.5 t-61.5 106.5t-118 79t-178 29h-1106v-674z" />
<glyph unicode="s" horiz-adv-x="1916" d="M104 0v84h1221q196 0 296.5 70.5t100.5 207.5q0 131 -98 199.5t-317 87.5l-701 60q-233 20 -347 107t-114 249q0 167 114.5 251.5t315.5 84.5h1137v-84h-1143q-161 0 -246 -62t-85 -188q0 -124 93 -190.5t296 -83.5l692 -58q254 -22 376 -110t122 -260 q0 -175 -124.5 -270t-371.5 -95h-1217z" />
<glyph unicode="t" horiz-adv-x="1693" d="M25 1317v84h1644v-84h-776v-1317h-92v1317h-776z" />
<glyph unicode="u" horiz-adv-x="2064" d="M197 655v746h90v-746q0 -133 23.5 -227.5t75 -164.5t139 -111t209.5 -60.5t294 -19.5q217 0 357.5 29.5t228.5 100t124 178.5t36 275v746h92v-746q0 -149 -27.5 -258t-87.5 -189.5t-159.5 -129.5t-237 -72.5t-326.5 -23.5q-229 0 -383 34t-256 113.5t-147 207t-45 318.5z " />
<glyph unicode="v" horiz-adv-x="1990" d="M80 1401h100l561 -1163q42 -88 101.5 -128t152.5 -40t152 39.5t102 128.5l561 1163h101l-572 -1190q-56 -117 -136.5 -173t-207.5 -56t-207 55t-137 174z" />
<glyph unicode="w" horiz-adv-x="2908" d="M84 1401h100l494 -1129q51 -119 113 -161.5t155 -42.5q102 0 165.5 43t113.5 143l180 369l-377 778h94l332 -684l332 684h94l-377 -778l180 -369q50 -101 113 -143.5t166 -42.5q92 0 154 42.5t114 161.5l494 1129h100l-512 -1163q-61 -139 -145.5 -197.5t-206.5 -58.5 q-126 0 -210.5 55t-145.5 178l-150 307l-149 -307q-61 -123 -146 -178t-211 -55q-122 0 -206.5 58.5t-145.5 197.5z" />
<glyph unicode="x" horiz-adv-x="1689" d="M39 0l739 721l-715 680h125l613 -582q23 -20 47 -51q15 25 41 51l610 582h127l-713 -680l738 -721h-123l-639 625q-31 31 -43 47l-43 -47l-639 -625h-125z" />
<glyph unicode="y" horiz-adv-x="1775" d="M27 1401h133l532 -547q154 -158 195 -274q43 119 194 274l535 547h131l-612 -621q-54 -55 -90.5 -98t-73.5 -112t-37 -126v-444h-92v444q0 43 -19 90.5t-54.5 95t-62.5 78.5t-67 72z" />
<glyph unicode="z" horiz-adv-x="1841" d="M111 1317v84h1599v-123q0 -72 -25 -136.5t-59.5 -112.5t-101.5 -97t-119.5 -80.5t-148 -72t-152 -61.5t-164.5 -59q-295 -104 -416 -164q-236 -118 -288 -261q-17 -45 -17 -95v-55h1520v-84h-1618v123q0 71 23.5 134t57.5 110.5t98.5 95t117.5 79t146 70.5t153.5 61 t167.5 60q87 31 141.5 51t131.5 51t125.5 55.5t106.5 58t93.5 66t67.5 71.5t46.5 83.5t14.5 92.5v55h-1501z" />
<glyph unicode="{" horiz-adv-x="837" d="M70 647v66q110 33 173.5 114.5t63.5 198.5v377q0 77 48.5 124.5t125.5 47.5h252v-76h-233q-50 0 -80.5 -29.5t-30.5 -78.5v-377q0 -114 -55.5 -200.5t-151.5 -133.5q96 -47 151.5 -134t55.5 -200v-379q0 -49 30.5 -77.5t80.5 -28.5h233v-76h-252q-77 0 -125.5 47 t-48.5 123v379q0 117 -63.5 198.5t-173.5 114.5z" />
<glyph unicode="|" horiz-adv-x="495" d="M207 -215v1790h82v-1790h-82z" />
<glyph unicode="}" horiz-adv-x="839" d="M104 -139h234q51 0 82 28.5t31 77.5v379q0 114 54 201t150 133q-97 46 -150.5 132.5t-53.5 201.5v377q0 49 -31 78.5t-82 29.5h-234v76h254q76 0 125 -47.5t49 -124.5v-377q0 -117 63.5 -198.5t174.5 -114.5v-66q-111 -33 -174.5 -114.5t-63.5 -198.5v-379 q0 -76 -49 -123t-125 -47h-254v76z" />
<glyph unicode="~" horiz-adv-x="1662" d="M174 541q8 45 22 89t42 93t64 85.5t91 60.5t121 24q73 0 143 -30t126.5 -72.5t112 -84.5t121.5 -72t132 -30q58 0 105.5 23.5t74 55t45.5 72.5t26 67.5t9 47.5h80q-6 -38 -17 -76.5t-37 -90t-61 -90t-94 -66t-131 -27.5q-74 0 -144.5 30t-127 72t-112 84.5t-120.5 72.5 t-131 30q-53 0 -97.5 -20.5t-72 -50t-48 -69t-30 -69.5t-14.5 -59h-78z" />
<glyph unicode="&#xa1;" horiz-adv-x="524" d="M209 1171v230h106v-230h-106zM213 0l10 1010h78l8 -1010h-96z" />
<glyph unicode="&#xa2;" horiz-adv-x="1529" d="M102 682q0 284 123.5 412.5t395.5 128.5h284v280h78v-280h406v-84h-768q-236 0 -334.5 -107.5t-98.5 -349.5t98.5 -348.5t334.5 -106.5h768v-84h-406v-325h-78v325h-284q-278 0 -398.5 129t-120.5 410z" />
<glyph unicode="&#xa3;" horiz-adv-x="1841" d="M109 0v66l348 16v510h-305v80h305v168q0 297 149.5 429t491.5 132h544v-84h-544q-300 0 -426.5 -110t-126.5 -367v-168h739v-80h-739v-510h1206v-82h-1642z" />
<glyph unicode="&#xa4;" horiz-adv-x="1777" d="M141 131l228 234q-111 130 -111 333q0 204 111 334l-228 234l56 57l229 -233q161 137 463 137q298 0 459 -137l231 233l57 -57l-231 -234q113 -131 113 -334q0 -201 -111 -333l229 -234l-57 -55l-229 231q-164 -139 -461 -139q-303 0 -463 139l-229 -231zM344 698 q0 -219 143 -336.5t402 -117.5q258 0 400.5 118t142.5 336t-142.5 335.5t-400.5 117.5q-260 0 -402.5 -117.5t-142.5 -335.5z" />
<glyph unicode="&#xa5;" horiz-adv-x="1767" d="M74 1401h125l497 -539q152 -160 187 -272q38 114 188 272l498 539h125q-261 -279 -525 -555l-63 -68h412v-69h-471q-121 -147 -121 -254v-101h592v-69h-592v-285h-86v285h-592v69h592v101q0 107 -121 254h-471v69h411l-61 68q-219 228 -524 555z" />
<glyph unicode="&#xa6;" horiz-adv-x="503" d="M211 -215v805h82v-805h-82zM211 827v748h82v-748h-82z" />
<glyph unicode="&#xa7;" horiz-adv-x="1687" d="M137 741q0 139 127 226q-71 62 -71 176q0 125 82.5 191.5t230.5 66.5h1007v-74h-1013q-109 0 -168.5 -48t-59.5 -134q0 -85 57 -127.5t179 -50.5l717 -49q334 -24 334 -259q0 -143 -127 -227q71 -62 71 -174q0 -125 -82.5 -191.5t-230.5 -66.5h-1032v76h1038 q109 0 168 47.5t59 132.5q0 84 -57.5 127t-177.5 51l-717 47q-165 10 -249.5 77t-84.5 183zM219 754q0 -89 62 -137.5t194 -57.5l723 -49q107 -6 174 -43q105 69 105 180q0 180 -256 197l-723 47q-109 6 -172 41q-107 -66 -107 -178z" />
<glyph unicode="&#xa8;" horiz-adv-x="1255" d="M324 1569v260h92v-260h-92zM842 1569v260h94v-260h-94z" />
<glyph unicode="&#xa9;" horiz-adv-x="2244" d="M135 700q0 400 239 586.5t748 186.5t748 -186.5t239 -586.5q0 -401 -238.5 -586.5t-748.5 -185.5t-748.5 185.5t-238.5 586.5zM201 700q0 -378 221 -545t700 -167t700.5 167t221.5 545t-221.5 545.5t-700.5 167.5t-700 -167.5t-221 -545.5zM621 700q0 189 81 276t263 87 h540v-59h-540q-152 0 -217.5 -71.5t-65.5 -232.5t65 -232t218 -71h540v-59h-540q-182 0 -263 86t-81 276z" />
<glyph unicode="&#xab;" horiz-adv-x="1748" d="M90 711l795 434v-96l-643 -338l643 -340v-97zM768 711l793 434v-96l-641 -338l641 -340v-97z" />
<glyph unicode="&#xad;" horiz-adv-x="1165" d="M184 670v80h797v-80h-797z" />
<glyph unicode="&#xae;" horiz-adv-x="2244" d="M135 700q0 400 239 586.5t748 186.5t748 -186.5t239 -586.5q0 -401 -238.5 -586.5t-748.5 -185.5t-748.5 185.5t-238.5 586.5zM201 700q0 -378 221 -545t700 -167t700.5 167t221.5 545t-221.5 545.5t-700.5 167.5t-700 -167.5t-221 -545.5zM715 346v717h606 q115 0 182.5 -59t67.5 -156q0 -73 -41 -125t-113 -72q133 -42 133 -176v-129h-61v129q0 68 -45.5 108t-132.5 40h-535v-277h-61zM776 680h545q98 0 143 49t45 115t-45 115t-143 49h-545v-328z" />
<glyph unicode="&#xb0;" horiz-adv-x="970" d="M143 1110q0 142 99.5 242t242.5 100q141 0 241.5 -100t100.5 -242q0 -141 -100.5 -241.5t-241.5 -100.5q-142 0 -242 100.5t-100 241.5zM207 1110q0 -115 81 -195.5t197 -80.5t196.5 80.5t80.5 195.5q0 116 -81 197.5t-196 81.5t-196.5 -81.5t-81.5 -197.5z" />
<glyph unicode="&#xb1;" horiz-adv-x="1585" d="M162 0v74h1261v-74h-1261zM162 721v74h594v448h73v-448h594v-74h-594v-449h-73v449h-594z" />
<glyph unicode="&#xb4;" horiz-adv-x="1116" d="M326 1542l282 371h111l-307 -371h-86z" />
<glyph unicode="&#xb6;" horiz-adv-x="1746" d="M96 965q0 198 138.5 317t388.5 119h909v-1401h-88v1321h-277v-1321h-88v526h-456q-252 0 -389.5 119.5t-137.5 319.5zM188 963q0 -162 112.5 -259.5t317.5 -97.5h461v715h-461q-203 0 -316.5 -97.5t-113.5 -260.5z" />
<glyph unicode="&#xb7;" horiz-adv-x="475" d="M184 621v239h107v-239h-107z" />
<glyph unicode="&#xb8;" horiz-adv-x="909" d="M150 -578l16 74h268q219 0 219 152q0 149 -211 149h-188l72 234h90l-56 -162h99q133 0 205.5 -60t72.5 -163q0 -111 -83.5 -167.5t-221.5 -56.5h-282z" />
<glyph unicode="&#xbb;" horiz-adv-x="1746" d="M186 274v97l641 340l-641 338v96l793 -434zM862 274v97l643 340l-643 338v96l795 -434z" />
<glyph unicode="&#xbf;" horiz-adv-x="1404" d="M94 299q0 216 230 305l376 152q53 20 73 56t20 89v115h88v-119q0 -157 -131 -211l-388 -154q-178 -71 -178 -229q0 -29 6 -56t25.5 -58.5t50 -54t85 -37.5t126.5 -15h850v-82h-846q-184 0 -285.5 78t-101.5 221zM786 1171v230h101v-230h-101z" />
<glyph unicode="&#xc0;" d="M84 0l539 1133q70 149 161 216.5t222 67.5q132 0 223 -67.5t162 -216.5l538 -1133h-98l-215 453h-1219l-215 -453h-98zM438 535h1137l-275 575q-51 110 -119.5 167.5t-174.5 57.5q-104 0 -173 -57.5t-120 -167.5zM717 1913h110l283 -371h-86z" />
<glyph unicode="&#xc1;" d="M84 0l539 1133q70 149 161 216.5t222 67.5q132 0 223 -67.5t162 -216.5l538 -1133h-98l-215 453h-1219l-215 -453h-98zM438 535h1137l-275 575q-51 110 -119.5 167.5t-174.5 57.5q-104 0 -173 -57.5t-120 -167.5zM877 1542l280 371h111l-305 -371h-86z" />
<glyph unicode="&#xc2;" d="M84 0l539 1133q70 149 161 216.5t222 67.5q132 0 223 -67.5t162 -216.5l538 -1133h-98l-215 453h-1219l-215 -453h-98zM438 535h1137l-275 575q-51 110 -119.5 167.5t-174.5 57.5q-104 0 -173 -57.5t-120 -167.5zM621 1542l331 354h109l332 -354h-93l-294 293l-293 -293 h-92z" />
<glyph unicode="&#xc3;" d="M84 0l539 1133q70 149 161 216.5t222 67.5q132 0 223 -67.5t162 -216.5l538 -1133h-98l-215 453h-1219l-215 -453h-98zM438 535h1137l-275 575q-51 110 -119.5 167.5t-174.5 57.5q-104 0 -173 -57.5t-120 -167.5zM537 1540q3 27 9.5 57t25 75t43.5 78.5t69.5 58 t99.5 24.5q56 0 109 -23t94 -55.5t80.5 -65.5t84.5 -56t89 -23q47 0 83 25t55.5 65.5t28.5 69t15 59.5h64q-3 -28 -9.5 -58t-24.5 -75t-43 -79t-69.5 -58.5t-99.5 -24.5q-56 0 -109 23t-94 56t-80.5 65.5t-84.5 55.5t-89 23q-47 0 -83 -25t-55.5 -64.5t-28.5 -69.5t-13 -58 h-67z" />
<glyph unicode="&#xc4;" d="M84 0l539 1133q70 149 161 216.5t222 67.5q132 0 223 -67.5t162 -216.5l538 -1133h-98l-215 453h-1219l-215 -453h-98zM438 535h1137l-275 575q-51 110 -119.5 167.5t-174.5 57.5q-104 0 -173 -57.5t-120 -167.5zM700 1569v260h95v-260h-95zM1219 1569v260h94v-260h-94z " />
<glyph unicode="&#xc5;" d="M84 0l539 1133q54 113 117 176t145 86q-73 30 -118.5 96t-45.5 149q0 118 83.5 201.5t201.5 83.5q119 0 202.5 -83.5t83.5 -201.5q0 -83 -46 -149t-120 -96q82 -23 146 -86.5t119 -175.5l538 -1133h-98l-215 453h-1219l-215 -453h-98zM438 535h1137l-275 575 q-51 110 -119.5 167.5t-174.5 57.5q-104 0 -173 -57.5t-120 -167.5zM786 1640q0 -92 64.5 -156.5t155.5 -64.5t156 64.5t65 156.5q0 91 -65 155.5t-156 64.5t-155.5 -64.5t-64.5 -155.5z" />
<glyph unicode="&#xc6;" horiz-adv-x="2967" d="M45 0l660 1139q82 139 173.5 200.5t219.5 61.5h1747v-84h-1522q86 -45 143 -203l131 -373h1196v-79h-1167l203 -578h1016v-84h-1086l-153 436h-1209l-252 -436h-100zM444 516h1135l-201 571q-18 51 -39.5 89.5t-54.5 73t-81.5 53t-110.5 18.5q-101 0 -170 -51.5 t-134 -163.5z" />
<glyph unicode="&#xc7;" horiz-adv-x="1974" d="M141 702q0 356 156.5 527.5t495.5 171.5h1095v-90h-1061q-322 0 -456.5 -143t-134.5 -468q0 -326 134.5 -468t456.5 -142h1061v-90h-1095q-336 0 -494 171t-158 531zM907 -578l17 74h268q219 0 219 152q0 149 -211 149h-188l71 234h91l-56 -162h99q133 0 205.5 -60 t72.5 -163q0 -111 -83.5 -167.5t-221.5 -56.5h-283z" />
<glyph unicode="&#xc8;" horiz-adv-x="2011" d="M139 702q0 356 156.5 527.5t495.5 171.5h1093v-88h-1093q-286 0 -420.5 -139.5t-139.5 -432.5h1616v-84h-1616q6 -292 140 -430.5t420 -138.5h1093v-88h-1093q-339 0 -495.5 172t-156.5 530zM840 1913h110l283 -371h-86z" />
<glyph unicode="&#xc9;" horiz-adv-x="2011" d="M139 702q0 356 156.5 527.5t495.5 171.5h1093v-88h-1093q-286 0 -420.5 -139.5t-139.5 -432.5h1616v-84h-1616q6 -292 140 -430.5t420 -138.5h1093v-88h-1093q-339 0 -495.5 172t-156.5 530zM1006 1542l282 371h111l-307 -371h-86z" />
<glyph unicode="&#xca;" horiz-adv-x="2011" d="M139 702q0 356 156.5 527.5t495.5 171.5h1093v-88h-1093q-286 0 -420.5 -139.5t-139.5 -432.5h1616v-84h-1616q6 -292 140 -430.5t420 -138.5h1093v-88h-1093q-339 0 -495.5 172t-156.5 530zM741 1542l332 354h109l331 -354h-92l-295 293l-292 -293h-93z" />
<glyph unicode="&#xcb;" horiz-adv-x="2011" d="M139 702q0 356 156.5 527.5t495.5 171.5h1093v-88h-1093q-286 0 -420.5 -139.5t-139.5 -432.5h1616v-84h-1616q6 -292 140 -430.5t420 -138.5h1093v-88h-1093q-339 0 -495.5 172t-156.5 530zM819 1569v260h94v-260h-94zM1337 1569v260h95v-260h-95z" />
<glyph unicode="&#xcc;" horiz-adv-x="520" d="M-18 1913h110l283 -371h-86zM215 0v1401h90v-1401h-90z" />
<glyph unicode="&#xcd;" horiz-adv-x="520" d="M143 1542l283 371h111l-308 -371h-86zM215 0v1401h90v-1401h-90z" />
<glyph unicode="&#xce;" horiz-adv-x="520" d="M-125 1542l332 354h108l332 -354h-92l-295 293l-293 -293h-92zM215 0v1401h90v-1401h-90z" />
<glyph unicode="&#xcf;" horiz-adv-x="520" d="M-47 1569v260h94v-260h-94zM215 0v1401h90v-1401h-90zM473 1569v260h92v-260h-92z" />
<glyph unicode="&#xd0;" horiz-adv-x="2168" d="M2 670v80h244v651h1128q340 0 497 -172.5t157 -528.5q0 -360 -158 -530t-496 -170h-1128v670h-244zM338 90h1036q298 0 428.5 148.5t130.5 461.5q0 312 -130.5 461.5t-428.5 149.5h-1036v-561h903v-80h-903v-580z" />
<glyph unicode="&#xd1;" horiz-adv-x="2203" d="M215 0v1401h102q61 0 107 -4.5t96 -24.5t84 -36.5t87 -66t88 -85.5t104 -122t117 -149t145 -192q249 -329 324 -416q118 -137 208 -179q75 -36 189 -36h30v1311h93v-1401h-101q-68 0 -122 10.5t-99 23.5t-99.5 57.5t-94 79.5t-113.5 125t-126.5 158t-162.5 212 q-259 341 -340 434q-117 134 -206 175q-73 34 -187 34h-31v-1309h-92zM664 1540q3 27 9.5 57t25 75t43.5 78.5t69.5 58t99.5 24.5q56 0 109 -23t94 -55.5t80.5 -65.5t84.5 -56t89 -23q47 0 83 25t55.5 65.5t28.5 69t15 59.5h64q-3 -28 -9.5 -58t-24.5 -75t-43 -79 t-69.5 -58.5t-99.5 -24.5q-56 0 -109 23t-94 56t-80.5 65.5t-84.5 55.5t-89 23q-47 0 -83 -25t-55.5 -64.5t-28.5 -69.5t-13 -58h-67z" />
<glyph unicode="&#xd2;" horiz-adv-x="2174" d="M137 700q0 125 22 225t63 174.5t104.5 129.5t139.5 91t176 57.5t206.5 30.5t238.5 9t238.5 -9t207 -30.5t176.5 -57.5t139.5 -91t104 -129.5t63 -174.5t22.5 -225t-22.5 -225.5t-63 -175t-104.5 -129.5t-139.5 -91t-176 -58t-207 -30.5t-238.5 -8.5t-238 8.5t-207 30.5 t-176.5 58t-139.5 91t-104 129.5t-62.5 175t-22.5 225.5zM229 700q0 -112 20 -201.5t55.5 -155t93 -113.5t125 -79t159.5 -49t187.5 -25t217.5 -7q106 0 192 5.5t169.5 18.5t147.5 35.5t122 56.5t98.5 82t70.5 110t44.5 142.5t14.5 179.5q0 112 -20 201t-55.5 155t-93 114 t-125.5 79t-159.5 49.5t-187.5 25.5t-218 7t-218 -7t-187.5 -25.5t-159 -49.5t-125 -79t-93 -114t-55.5 -155t-20 -201zM799 1913h110l283 -371h-86z" />
<glyph unicode="&#xd3;" horiz-adv-x="2174" d="M137 700q0 125 22 225t63 174.5t104.5 129.5t139.5 91t176 57.5t206.5 30.5t238.5 9t238.5 -9t207 -30.5t176.5 -57.5t139.5 -91t104 -129.5t63 -174.5t22.5 -225t-22.5 -225.5t-63 -175t-104.5 -129.5t-139.5 -91t-176 -58t-207 -30.5t-238.5 -8.5t-238 8.5t-207 30.5 t-176.5 58t-139.5 91t-104 129.5t-62.5 175t-22.5 225.5zM229 700q0 -112 20 -201.5t55.5 -155t93 -113.5t125 -79t159.5 -49t187.5 -25t217.5 -7q106 0 192 5.5t169.5 18.5t147.5 35.5t122 56.5t98.5 82t70.5 110t44.5 142.5t14.5 179.5q0 112 -20 201t-55.5 155t-93 114 t-125.5 79t-159.5 49.5t-187.5 25.5t-218 7t-218 -7t-187.5 -25.5t-159 -49.5t-125 -79t-93 -114t-55.5 -155t-20 -201zM973 1542l282 371h111l-307 -371h-86z" />
<glyph unicode="&#xd4;" horiz-adv-x="2174" d="M137 700q0 125 22 225t63 174.5t104.5 129.5t139.5 91t176 57.5t206.5 30.5t238.5 9t238.5 -9t207 -30.5t176.5 -57.5t139.5 -91t104 -129.5t63 -174.5t22.5 -225t-22.5 -225.5t-63 -175t-104.5 -129.5t-139.5 -91t-176 -58t-207 -30.5t-238.5 -8.5t-238 8.5t-207 30.5 t-176.5 58t-139.5 91t-104 129.5t-62.5 175t-22.5 225.5zM229 700q0 -112 20 -201.5t55.5 -155t93 -113.5t125 -79t159.5 -49t187.5 -25t217.5 -7q106 0 192 5.5t169.5 18.5t147.5 35.5t122 56.5t98.5 82t70.5 110t44.5 142.5t14.5 179.5q0 112 -20 201t-55.5 155t-93 114 t-125.5 79t-159.5 49.5t-187.5 25.5t-218 7t-218 -7t-187.5 -25.5t-159 -49.5t-125 -79t-93 -114t-55.5 -155t-20 -201zM702 1542l332 354h109l332 -354h-93l-295 293l-292 -293h-93z" />
<glyph unicode="&#xd5;" horiz-adv-x="2174" d="M137 700q0 125 22 225t63 174.5t104.5 129.5t139.5 91t176 57.5t206.5 30.5t238.5 9t238.5 -9t207 -30.5t176.5 -57.5t139.5 -91t104 -129.5t63 -174.5t22.5 -225t-22.5 -225.5t-63 -175t-104.5 -129.5t-139.5 -91t-176 -58t-207 -30.5t-238.5 -8.5t-238 8.5t-207 30.5 t-176.5 58t-139.5 91t-104 129.5t-62.5 175t-22.5 225.5zM229 700q0 -112 20 -201.5t55.5 -155t93 -113.5t125 -79t159.5 -49t187.5 -25t217.5 -7q106 0 192 5.5t169.5 18.5t147.5 35.5t122 56.5t98.5 82t70.5 110t44.5 142.5t14.5 179.5q0 112 -20 201t-55.5 155t-93 114 t-125.5 79t-159.5 49.5t-187.5 25.5t-218 7t-218 -7t-187.5 -25.5t-159 -49.5t-125 -79t-93 -114t-55.5 -155t-20 -201zM602 1540q3 27 10 57t25 74.5t43.5 78.5t70 58.5t99.5 24.5q56 0 109 -23t94 -55.5t80.5 -65.5t84.5 -56t89 -23q47 0 83 25t55.5 65.5t28.5 69t15 59.5 h63q-3 -28 -9.5 -58t-24.5 -75t-43 -79t-69 -58.5t-99 -24.5q-56 0 -109 23t-94 56t-80.5 65.5t-84.5 55.5t-89 23q-47 0 -83 -25t-55.5 -64.5t-28.5 -69.5t-13 -58h-68z" />
<glyph unicode="&#xd6;" horiz-adv-x="2174" d="M137 700q0 125 22 225t63 174.5t104.5 129.5t139.5 91t176 57.5t206.5 30.5t238.5 9t238.5 -9t207 -30.5t176.5 -57.5t139.5 -91t104 -129.5t63 -174.5t22.5 -225t-22.5 -225.5t-63 -175t-104.5 -129.5t-139.5 -91t-176 -58t-207 -30.5t-238.5 -8.5t-238 8.5t-207 30.5 t-176.5 58t-139.5 91t-104 129.5t-62.5 175t-22.5 225.5zM229 700q0 -112 20 -201.5t55.5 -155t93 -113.5t125 -79t159.5 -49t187.5 -25t217.5 -7q106 0 192 5.5t169.5 18.5t147.5 35.5t122 56.5t98.5 82t70.5 110t44.5 142.5t14.5 179.5q0 112 -20 201t-55.5 155t-93 114 t-125.5 79t-159.5 49.5t-187.5 25.5t-218 7t-218 -7t-187.5 -25.5t-159 -49.5t-125 -79t-93 -114t-55.5 -155t-20 -201zM780 1569v260h94v-260h-94zM1300 1569v260h93v-260h-93z" />
<glyph unicode="&#xd7;" horiz-adv-x="1421" d="M168 311l483 398l-483 397l47 59l494 -407l495 407l49 -59l-485 -397l485 -398l-49 -59l-495 405l-494 -405z" />
<glyph unicode="&#xd8;" horiz-adv-x="2174" d="M102 57l199 136q-164 169 -164 507q0 125 22 225t63 174.5t104.5 129.5t139.5 91t176 57.5t206.5 30.5t238.5 9q263 0 447 -39.5t301 -136.5l209 143l29 -41l-201 -137q166 -171 166 -506q0 -125 -22.5 -225.5t-63 -175t-104.5 -129.5t-139.5 -91t-176 -58t-207 -30.5 t-238.5 -8.5q-264 0 -447.5 39.5t-301.5 138.5l-207 -144zM229 700q0 -311 152 -454l1370 940q-102 81 -265 113t-399 32q-122 0 -218 -7t-187.5 -25.5t-159 -49.5t-125 -79t-93 -114t-55.5 -155t-20 -201zM422 213q104 -80 266.5 -111.5t398.5 -31.5q106 0 192 5.5 t169.5 18.5t147.5 35.5t122 56.5t98.5 82t70.5 110t44.5 142.5t14.5 179.5q0 303 -152 455z" />
<glyph unicode="&#xd9;" horiz-adv-x="2064" d="M197 655v746h90v-746q0 -133 23.5 -227.5t75 -164.5t139 -111t209.5 -60.5t294 -19.5q217 0 357.5 29.5t228.5 100t124 178.5t36 275v746h92v-746q0 -149 -27.5 -258t-87.5 -189.5t-159.5 -129.5t-237 -72.5t-326.5 -23.5q-229 0 -383 34t-256 113.5t-147 207t-45 318.5z M762 1913h110l283 -371h-86z" />
<glyph unicode="&#xda;" horiz-adv-x="2064" d="M197 655v746h90v-746q0 -133 23.5 -227.5t75 -164.5t139 -111t209.5 -60.5t294 -19.5q217 0 357.5 29.5t228.5 100t124 178.5t36 275v746h92v-746q0 -149 -27.5 -258t-87.5 -189.5t-159.5 -129.5t-237 -72.5t-326.5 -23.5q-229 0 -383 34t-256 113.5t-147 207t-45 318.5z M928 1542l282 371h111l-307 -371h-86z" />
<glyph unicode="&#xdb;" horiz-adv-x="2064" d="M197 655v746h90v-746q0 -133 23.5 -227.5t75 -164.5t139 -111t209.5 -60.5t294 -19.5q217 0 357.5 29.5t228.5 100t124 178.5t36 275v746h92v-746q0 -149 -27.5 -258t-87.5 -189.5t-159.5 -129.5t-237 -72.5t-326.5 -23.5q-229 0 -383 34t-256 113.5t-147 207t-45 318.5z M645 1542l332 354h108l332 -354h-92l-295 293l-293 -293h-92z" />
<glyph unicode="&#xdc;" horiz-adv-x="2064" d="M197 655v746h90v-746q0 -133 23.5 -227.5t75 -164.5t139 -111t209.5 -60.5t294 -19.5q217 0 357.5 29.5t228.5 100t124 178.5t36 275v746h92v-746q0 -149 -27.5 -258t-87.5 -189.5t-159.5 -129.5t-237 -72.5t-326.5 -23.5q-229 0 -383 34t-256 113.5t-147 207t-45 318.5z M725 1569v260h92v-260h-92zM1243 1569v260h94v-260h-94z" />
<glyph unicode="&#xdd;" horiz-adv-x="1775" d="M27 1401h133l532 -547q154 -158 195 -274q43 119 194 274l535 547h131l-612 -621q-54 -55 -90.5 -98t-73.5 -112t-37 -126v-444h-92v444q0 43 -19 90.5t-54.5 95t-62.5 78.5t-67 72zM776 1542l283 371h110l-307 -371h-86z" />
<glyph unicode="&#xde;" horiz-adv-x="1949" d="M215 0v1401h92v-260h1079q221 0 348.5 -121.5t127.5 -308.5t-127.5 -308.5t-348.5 -121.5h-1079v-281h-92zM307 365h1084q93 0 167 29.5t118.5 79t67.5 110.5t23 127q0 67 -23 127.5t-67.5 110t-118.5 79t-167 29.5h-1084v-692z" />
<glyph unicode="&#xdf;" horiz-adv-x="3862" d="M104 0v84h1221q196 0 296.5 70.5t100.5 207.5q0 131 -98 199.5t-317 87.5l-701 60q-233 20 -347 107t-114 249q0 167 114.5 251.5t315.5 84.5h1137v-84h-1143q-161 0 -246 -62t-85 -188q0 -124 93 -190.5t296 -83.5l692 -58q254 -22 376 -110t122 -260 q0 -175 -124.5 -270t-371.5 -95h-1217zM2050 0v84h1221q196 0 296.5 70.5t100.5 207.5q0 131 -98.5 199.5t-317.5 87.5l-700 60q-233 20 -347 107t-114 249q0 167 114.5 251.5t315.5 84.5h1137v-84h-1143q-161 0 -246.5 -62.5t-85.5 -187.5q0 -124 93 -190.5t296 -83.5 l693 -58q253 -22 375 -110t122 -260q0 -175 -124 -270t-371 -95h-1217z" />
<glyph unicode="&#xe0;" d="M84 0l539 1133q70 149 161 216.5t222 67.5q132 0 223 -67.5t162 -216.5l538 -1133h-98l-215 453h-1219l-215 -453h-98zM438 535h1137l-275 575q-51 110 -119.5 167.5t-174.5 57.5q-104 0 -173 -57.5t-120 -167.5zM717 1913h110l283 -371h-86z" />
<glyph unicode="&#xe1;" d="M84 0l539 1133q70 149 161 216.5t222 67.5q132 0 223 -67.5t162 -216.5l538 -1133h-98l-215 453h-1219l-215 -453h-98zM438 535h1137l-275 575q-51 110 -119.5 167.5t-174.5 57.5q-104 0 -173 -57.5t-120 -167.5zM877 1542l280 371h111l-305 -371h-86z" />
<glyph unicode="&#xe2;" d="M84 0l539 1133q70 149 161 216.5t222 67.5q132 0 223 -67.5t162 -216.5l538 -1133h-98l-215 453h-1219l-215 -453h-98zM438 535h1137l-275 575q-51 110 -119.5 167.5t-174.5 57.5q-104 0 -173 -57.5t-120 -167.5zM621 1542l331 354h109l332 -354h-93l-294 293l-293 -293 h-92z" />
<glyph unicode="&#xe3;" d="M84 0l539 1133q70 149 161 216.5t222 67.5q132 0 223 -67.5t162 -216.5l538 -1133h-98l-215 453h-1219l-215 -453h-98zM438 535h1137l-275 575q-51 110 -119.5 167.5t-174.5 57.5q-104 0 -173 -57.5t-120 -167.5zM537 1540q3 27 9.5 57t25 75t43.5 78.5t69.5 58 t99.5 24.5q56 0 109 -23t94 -55.5t80.5 -65.5t84.5 -56t89 -23q47 0 83 25t55.5 65.5t28.5 69t15 59.5h64q-3 -28 -9.5 -58t-24.5 -75t-43 -79t-69.5 -58.5t-99.5 -24.5q-56 0 -109 23t-94 56t-80.5 65.5t-84.5 55.5t-89 23q-47 0 -83 -25t-55.5 -64.5t-28.5 -69.5t-13 -58 h-67z" />
<glyph unicode="&#xe4;" d="M84 0l539 1133q70 149 161 216.5t222 67.5q132 0 223 -67.5t162 -216.5l538 -1133h-98l-215 453h-1219l-215 -453h-98zM438 535h1137l-275 575q-51 110 -119.5 167.5t-174.5 57.5q-104 0 -173 -57.5t-120 -167.5zM700 1569v260h95v-260h-95zM1219 1569v260h94v-260h-94z " />
<glyph unicode="&#xe5;" d="M84 0l539 1133q54 113 117 176t145 86q-73 30 -118.5 96t-45.5 149q0 118 83.5 201.5t201.5 83.5q119 0 202.5 -83.5t83.5 -201.5q0 -83 -46 -149t-120 -96q82 -23 146 -86.5t119 -175.5l538 -1133h-98l-215 453h-1219l-215 -453h-98zM438 535h1137l-275 575 q-51 110 -119.5 167.5t-174.5 57.5q-104 0 -173 -57.5t-120 -167.5zM786 1640q0 -92 64.5 -156.5t155.5 -64.5t156 64.5t65 156.5q0 91 -65 155.5t-156 64.5t-155.5 -64.5t-64.5 -155.5z" />
<glyph unicode="&#xe6;" horiz-adv-x="2967" d="M45 0l660 1139q82 139 173.5 200.5t219.5 61.5h1747v-84h-1522q86 -45 143 -203l131 -373h1196v-79h-1167l203 -578h1016v-84h-1086l-153 436h-1209l-252 -436h-100zM444 516h1135l-201 571q-18 51 -39.5 89.5t-54.5 73t-81.5 53t-110.5 18.5q-101 0 -170 -51.5 t-134 -163.5z" />
<glyph unicode="&#xe7;" horiz-adv-x="1974" d="M141 702q0 356 156.5 527.5t495.5 171.5h1095v-90h-1061q-322 0 -456.5 -143t-134.5 -468q0 -326 134.5 -468t456.5 -142h1061v-90h-1095q-336 0 -494 171t-158 531zM907 -578l17 74h268q219 0 219 152q0 149 -211 149h-188l71 234h91l-56 -162h99q133 0 205.5 -60 t72.5 -163q0 -111 -83.5 -167.5t-221.5 -56.5h-283z" />
<glyph unicode="&#xe8;" horiz-adv-x="2011" d="M139 702q0 356 156.5 527.5t495.5 171.5h1093v-88h-1093q-286 0 -420.5 -139.5t-139.5 -432.5h1616v-84h-1616q6 -292 140 -430.5t420 -138.5h1093v-88h-1093q-339 0 -495.5 172t-156.5 530zM840 1913h110l283 -371h-86z" />
<glyph unicode="&#xe9;" horiz-adv-x="2011" d="M139 702q0 356 156.5 527.5t495.5 171.5h1093v-88h-1093q-286 0 -420.5 -139.5t-139.5 -432.5h1616v-84h-1616q6 -292 140 -430.5t420 -138.5h1093v-88h-1093q-339 0 -495.5 172t-156.5 530zM1006 1542l282 371h111l-307 -371h-86z" />
<glyph unicode="&#xea;" horiz-adv-x="2011" d="M139 702q0 356 156.5 527.5t495.5 171.5h1093v-88h-1093q-286 0 -420.5 -139.5t-139.5 -432.5h1616v-84h-1616q6 -292 140 -430.5t420 -138.5h1093v-88h-1093q-339 0 -495.5 172t-156.5 530zM741 1542l332 354h109l331 -354h-92l-295 293l-292 -293h-93z" />
<glyph unicode="&#xeb;" horiz-adv-x="2011" d="M139 702q0 356 156.5 527.5t495.5 171.5h1093v-88h-1093q-286 0 -420.5 -139.5t-139.5 -432.5h1616v-84h-1616q6 -292 140 -430.5t420 -138.5h1093v-88h-1093q-339 0 -495.5 172t-156.5 530zM819 1569v260h94v-260h-94zM1337 1569v260h95v-260h-95z" />
<glyph unicode="&#xec;" horiz-adv-x="520" d="M-18 1913h110l283 -371h-86zM215 0v1401h90v-1401h-90z" />
<glyph unicode="&#xed;" horiz-adv-x="520" d="M143 1542l283 371h111l-308 -371h-86zM215 0v1401h90v-1401h-90z" />
<glyph unicode="&#xee;" horiz-adv-x="520" d="M-125 1542l332 354h108l332 -354h-92l-295 293l-293 -293h-92zM215 0v1401h90v-1401h-90z" />
<glyph unicode="&#xef;" horiz-adv-x="520" d="M-47 1569v260h94v-260h-94zM215 0v1401h90v-1401h-90zM473 1569v260h92v-260h-92z" />
<glyph unicode="&#xf0;" horiz-adv-x="2217" d="M51 670v80h244v651h1128q340 0 497 -172.5t157 -528.5q0 -360 -158 -530t-496 -170h-1128v670h-244zM387 90h1036q298 0 428.5 148.5t130.5 461.5q0 312 -130.5 461.5t-428.5 149.5h-1036v-561h903v-80h-903v-580z" />
<glyph unicode="&#xf1;" horiz-adv-x="2203" d="M215 0v1401h102q61 0 107 -4.5t96 -24.5t84 -36.5t87 -66t88 -85.5t104 -122t117 -149t145 -192q249 -329 324 -416q118 -137 208 -179q75 -36 189 -36h30v1311h93v-1401h-101q-68 0 -122 10.5t-99 23.5t-99.5 57.5t-94 79.5t-113.5 125t-126.5 158t-162.5 212 q-259 341 -340 434q-117 134 -206 175q-73 34 -187 34h-31v-1309h-92zM664 1540q3 27 9.5 57t25 75t43.5 78.5t69.5 58t99.5 24.5q56 0 109 -23t94 -55.5t80.5 -65.5t84.5 -56t89 -23q47 0 83 25t55.5 65.5t28.5 69t15 59.5h64q-3 -28 -9.5 -58t-24.5 -75t-43 -79 t-69.5 -58.5t-99.5 -24.5q-56 0 -109 23t-94 56t-80.5 65.5t-84.5 55.5t-89 23q-47 0 -83 -25t-55.5 -64.5t-28.5 -69.5t-13 -58h-67z" />
<glyph unicode="&#xf2;" horiz-adv-x="2174" d="M137 700q0 125 22 225t63 174.5t104.5 129.5t139.5 91t176 57.5t206.5 30.5t238.5 9t238.5 -9t207 -30.5t176.5 -57.5t139.5 -91t104 -129.5t63 -174.5t22.5 -225t-22.5 -225.5t-63 -175t-104.5 -129.5t-139.5 -91t-176 -58t-207 -30.5t-238.5 -8.5t-238 8.5t-207 30.5 t-176.5 58t-139.5 91t-104 129.5t-62.5 175t-22.5 225.5zM229 700q0 -112 20 -201.5t55.5 -155t93 -113.5t125 -79t159.5 -49t187.5 -25t217.5 -7q106 0 192 5.5t169.5 18.5t147.5 35.5t122 56.5t98.5 82t70.5 110t44.5 142.5t14.5 179.5q0 112 -20 201t-55.5 155t-93 114 t-125.5 79t-159.5 49.5t-187.5 25.5t-218 7t-218 -7t-187.5 -25.5t-159 -49.5t-125 -79t-93 -114t-55.5 -155t-20 -201zM799 1913h110l283 -371h-86z" />
<glyph unicode="&#xf3;" horiz-adv-x="2174" d="M137 700q0 125 22 225t63 174.5t104.5 129.5t139.5 91t176 57.5t206.5 30.5t238.5 9t238.5 -9t207 -30.5t176.5 -57.5t139.5 -91t104 -129.5t63 -174.5t22.5 -225t-22.5 -225.5t-63 -175t-104.5 -129.5t-139.5 -91t-176 -58t-207 -30.5t-238.5 -8.5t-238 8.5t-207 30.5 t-176.5 58t-139.5 91t-104 129.5t-62.5 175t-22.5 225.5zM229 700q0 -112 20 -201.5t55.5 -155t93 -113.5t125 -79t159.5 -49t187.5 -25t217.5 -7q106 0 192 5.5t169.5 18.5t147.5 35.5t122 56.5t98.5 82t70.5 110t44.5 142.5t14.5 179.5q0 112 -20 201t-55.5 155t-93 114 t-125.5 79t-159.5 49.5t-187.5 25.5t-218 7t-218 -7t-187.5 -25.5t-159 -49.5t-125 -79t-93 -114t-55.5 -155t-20 -201zM973 1542l282 371h111l-307 -371h-86z" />
<glyph unicode="&#xf4;" horiz-adv-x="2174" d="M137 700q0 125 22 225t63 174.5t104.5 129.5t139.5 91t176 57.5t206.5 30.5t238.5 9t238.5 -9t207 -30.5t176.5 -57.5t139.5 -91t104 -129.5t63 -174.5t22.5 -225t-22.5 -225.5t-63 -175t-104.5 -129.5t-139.5 -91t-176 -58t-207 -30.5t-238.5 -8.5t-238 8.5t-207 30.5 t-176.5 58t-139.5 91t-104 129.5t-62.5 175t-22.5 225.5zM229 700q0 -112 20 -201.5t55.5 -155t93 -113.5t125 -79t159.5 -49t187.5 -25t217.5 -7q106 0 192 5.5t169.5 18.5t147.5 35.5t122 56.5t98.5 82t70.5 110t44.5 142.5t14.5 179.5q0 112 -20 201t-55.5 155t-93 114 t-125.5 79t-159.5 49.5t-187.5 25.5t-218 7t-218 -7t-187.5 -25.5t-159 -49.5t-125 -79t-93 -114t-55.5 -155t-20 -201zM702 1542l332 354h109l332 -354h-93l-295 293l-292 -293h-93z" />
<glyph unicode="&#xf5;" horiz-adv-x="2174" d="M137 700q0 125 22 225t63 174.5t104.5 129.5t139.5 91t176 57.5t206.5 30.5t238.5 9t238.5 -9t207 -30.5t176.5 -57.5t139.5 -91t104 -129.5t63 -174.5t22.5 -225t-22.5 -225.5t-63 -175t-104.5 -129.5t-139.5 -91t-176 -58t-207 -30.5t-238.5 -8.5t-238 8.5t-207 30.5 t-176.5 58t-139.5 91t-104 129.5t-62.5 175t-22.5 225.5zM229 700q0 -112 20 -201.5t55.5 -155t93 -113.5t125 -79t159.5 -49t187.5 -25t217.5 -7q106 0 192 5.5t169.5 18.5t147.5 35.5t122 56.5t98.5 82t70.5 110t44.5 142.5t14.5 179.5q0 112 -20 201t-55.5 155t-93 114 t-125.5 79t-159.5 49.5t-187.5 25.5t-218 7t-218 -7t-187.5 -25.5t-159 -49.5t-125 -79t-93 -114t-55.5 -155t-20 -201zM602 1540q3 27 10 57t25 74.5t43.5 78.5t70 58.5t99.5 24.5q56 0 109 -23t94 -55.5t80.5 -65.5t84.5 -56t89 -23q47 0 83 25t55.5 65.5t28.5 69t15 59.5 h63q-3 -28 -9.5 -58t-24.5 -75t-43 -79t-69 -58.5t-99 -24.5q-56 0 -109 23t-94 56t-80.5 65.5t-84.5 55.5t-89 23q-47 0 -83 -25t-55.5 -64.5t-28.5 -69.5t-13 -58h-68z" />
<glyph unicode="&#xf6;" horiz-adv-x="2174" d="M137 700q0 125 22 225t63 174.5t104.5 129.5t139.5 91t176 57.5t206.5 30.5t238.5 9t238.5 -9t207 -30.5t176.5 -57.5t139.5 -91t104 -129.5t63 -174.5t22.5 -225t-22.5 -225.5t-63 -175t-104.5 -129.5t-139.5 -91t-176 -58t-207 -30.5t-238.5 -8.5t-238 8.5t-207 30.5 t-176.5 58t-139.5 91t-104 129.5t-62.5 175t-22.5 225.5zM229 700q0 -112 20 -201.5t55.5 -155t93 -113.5t125 -79t159.5 -49t187.5 -25t217.5 -7q106 0 192 5.5t169.5 18.5t147.5 35.5t122 56.5t98.5 82t70.5 110t44.5 142.5t14.5 179.5q0 112 -20 201t-55.5 155t-93 114 t-125.5 79t-159.5 49.5t-187.5 25.5t-218 7t-218 -7t-187.5 -25.5t-159 -49.5t-125 -79t-93 -114t-55.5 -155t-20 -201zM780 1569v260h94v-260h-94zM1300 1569v260h93v-260h-93z" />
<glyph unicode="&#xf7;" horiz-adv-x="1630" d="M184 670v80h1262v-80h-1262zM766 123v237h98v-237h-98zM766 1059v237h98v-237h-98z" />
<glyph unicode="&#xf8;" horiz-adv-x="2174" d="M102 57l199 136q-164 169 -164 507q0 125 22 225t63 174.5t104.5 129.5t139.5 91t176 57.5t206.5 30.5t238.5 9q263 0 447 -39.5t301 -136.5l209 143l29 -41l-201 -137q166 -171 166 -506q0 -125 -22.5 -225.5t-63 -175t-104.5 -129.5t-139.5 -91t-176 -58t-207 -30.5 t-238.5 -8.5q-264 0 -447.5 39.5t-301.5 138.5l-207 -144zM229 700q0 -311 152 -454l1370 940q-102 81 -265 113t-399 32q-122 0 -218 -7t-187.5 -25.5t-159 -49.5t-125 -79t-93 -114t-55.5 -155t-20 -201zM422 213q104 -80 266.5 -111.5t398.5 -31.5q106 0 192 5.5 t169.5 18.5t147.5 35.5t122 56.5t98.5 82t70.5 110t44.5 142.5t14.5 179.5q0 303 -152 455z" />
<glyph unicode="&#xf9;" horiz-adv-x="2064" d="M197 655v746h90v-746q0 -133 23.5 -227.5t75 -164.5t139 -111t209.5 -60.5t294 -19.5q217 0 357.5 29.5t228.5 100t124 178.5t36 275v746h92v-746q0 -149 -27.5 -258t-87.5 -189.5t-159.5 -129.5t-237 -72.5t-326.5 -23.5q-229 0 -383 34t-256 113.5t-147 207t-45 318.5z M762 1913h110l283 -371h-86z" />
<glyph unicode="&#xfa;" horiz-adv-x="2064" d="M197 655v746h90v-746q0 -133 23.5 -227.5t75 -164.5t139 -111t209.5 -60.5t294 -19.5q217 0 357.5 29.5t228.5 100t124 178.5t36 275v746h92v-746q0 -149 -27.5 -258t-87.5 -189.5t-159.5 -129.5t-237 -72.5t-326.5 -23.5q-229 0 -383 34t-256 113.5t-147 207t-45 318.5z M928 1542l282 371h111l-307 -371h-86z" />
<glyph unicode="&#xfb;" horiz-adv-x="2064" d="M197 655v746h90v-746q0 -133 23.5 -227.5t75 -164.5t139 -111t209.5 -60.5t294 -19.5q217 0 357.5 29.5t228.5 100t124 178.5t36 275v746h92v-746q0 -149 -27.5 -258t-87.5 -189.5t-159.5 -129.5t-237 -72.5t-326.5 -23.5q-229 0 -383 34t-256 113.5t-147 207t-45 318.5z M645 1542l332 354h108l332 -354h-92l-295 293l-293 -293h-92z" />
<glyph unicode="&#xfc;" horiz-adv-x="2064" d="M197 655v746h90v-746q0 -133 23.5 -227.5t75 -164.5t139 -111t209.5 -60.5t294 -19.5q217 0 357.5 29.5t228.5 100t124 178.5t36 275v746h92v-746q0 -149 -27.5 -258t-87.5 -189.5t-159.5 -129.5t-237 -72.5t-326.5 -23.5q-229 0 -383 34t-256 113.5t-147 207t-45 318.5z M725 1569v260h92v-260h-92zM1243 1569v260h94v-260h-94z" />
<glyph unicode="&#xfd;" horiz-adv-x="1775" d="M27 1401h133l532 -547q154 -158 195 -274q43 119 194 274l535 547h131l-612 -621q-54 -55 -90.5 -98t-73.5 -112t-37 -126v-444h-92v444q0 43 -19 90.5t-54.5 95t-62.5 78.5t-67 72zM776 1542l283 371h110l-307 -371h-86z" />
<glyph unicode="&#xfe;" horiz-adv-x="1949" d="M215 0v1401h92v-260h1079q221 0 348.5 -121.5t127.5 -308.5t-127.5 -308.5t-348.5 -121.5h-1079v-281h-92zM307 365h1084q93 0 167 29.5t118.5 79t67.5 110.5t23 127q0 67 -23 127.5t-67.5 110t-118.5 79t-167 29.5h-1084v-692z" />
<glyph unicode="&#xff;" horiz-adv-x="1775" d="M27 1401h133l532 -547q154 -158 195 -274q43 119 194 274l535 547h131l-612 -621q-54 -55 -90.5 -98t-73.5 -112t-37 -126v-444h-92v444q0 43 -19 90.5t-54.5 95t-62.5 78.5t-67 72zM584 1569v260h94v-260h-94zM1104 1569v260h92v-260h-92z" />
<glyph unicode="&#x152;" horiz-adv-x="3717" d="M137 700q0 125 21.5 225t61.5 174.5t102.5 129.5t137 91t174.5 57.5t205.5 30.5t237.5 9q154 0 271 -12t225.5 -43.5t184 -84t130 -136.5t78.5 -199q52 235 219 347t463 112h944v-88h-944q-317 0 -469 -134.5t-164 -437.5h1530v-84h-1530q12 -301 164 -435t469 -134h944 v-88h-944q-297 0 -463.5 111.5t-218.5 347.5q-24 -115 -78.5 -199.5t-130 -137.5t-184 -84.5t-225.5 -43.5t-271 -12q-132 0 -237.5 8.5t-205.5 30.5t-174.5 58t-137 91t-102.5 129.5t-61.5 175t-21.5 225.5zM229 700q0 -113 19 -202t54 -155t91.5 -113.5t123 -78.5 t157.5 -49t186 -25t217 -7t217 7t186 25t157 49t122 78.5t91 113.5t54 155t19 202q0 112 -19 201t-54 155t-91 114t-122.5 79t-157 49.5t-185.5 25.5t-217 7t-217.5 -7t-186 -25.5t-157 -49.5t-123 -79t-91.5 -114t-54 -155t-19 -201z" />
<glyph unicode="&#x153;" horiz-adv-x="3717" d="M137 700q0 125 21.5 225t61.5 174t102.5 129t137 90.5t174.5 57.5t205.5 30.5t237.5 8.5q154 0 271 -12t225.5 -43.5t184 -84t130 -136.5t78.5 -199q52 236 219 348.5t463 112.5h944v-88h-944q-317 0 -469 -134.5t-164 -437.5h1530v-84h-1530q12 -301 164 -435t469 -134 h944v-88h-944q-297 0 -463.5 111.5t-218.5 347.5q-24 -115 -78.5 -198.5t-129.5 -136t-184 -84t-226 -43t-271 -11.5q-132 0 -237.5 8.5t-205.5 30t-174.5 57t-137 90t-102.5 129t-61.5 174.5t-21.5 225zM229 700q0 -113 19 -202t54 -154.5t91.5 -113t123 -78t157.5 -48.5 t186 -25t217 -7t217 7t186 25t157 48.5t122 78t91 113t54 154.5t19 202q0 112 -19 201t-54 154.5t-91 113t-122 78t-157 48.5t-186 25t-217 7t-217 -7t-186 -25t-157.5 -48.5t-123 -78t-91.5 -113t-54 -154.5t-19 -201z" />
<glyph unicode="&#x178;" horiz-adv-x="1775" d="M27 1401h133l532 -547q154 -158 195 -274q43 119 194 274l535 547h131l-612 -621q-54 -55 -90.5 -98t-73.5 -112t-37 -126v-444h-92v444q0 43 -19 90.5t-54.5 95t-62.5 78.5t-67 72zM584 1569v260h94v-260h-94zM1104 1569v260h92v-260h-92z" />
<glyph unicode="&#x2c6;" horiz-adv-x="1187" d="M217 1542l332 354h108l332 -354h-92l-295 293l-293 -293h-92z" />
<glyph unicode="&#x2dc;" horiz-adv-x="1253" d="M156 1540q3 27 9.5 57t25 75t43.5 78.5t69.5 58t99.5 24.5q56 0 109 -23t94 -55.5t80.5 -65.5t84.5 -56t89 -23q47 0 83 25t55.5 65.5t28.5 69t15 59.5h64q-3 -28 -9.5 -58t-24.5 -75t-43 -79t-69.5 -58.5t-99.5 -24.5q-56 0 -109 23t-94 56t-80.5 65.5t-84.5 55.5 t-89 23q-47 0 -83 -25t-55.5 -64.5t-28.5 -69.5t-13 -58h-67z" />
<glyph unicode="&#x2000;" horiz-adv-x="962" />
<glyph unicode="&#x2001;" horiz-adv-x="1925" />
<glyph unicode="&#x2002;" horiz-adv-x="962" />
<glyph unicode="&#x2003;" horiz-adv-x="1925" />
<glyph unicode="&#x2004;" horiz-adv-x="641" />
<glyph unicode="&#x2005;" horiz-adv-x="481" />
<glyph unicode="&#x2006;" horiz-adv-x="320" />
<glyph unicode="&#x2007;" horiz-adv-x="320" />
<glyph unicode="&#x2008;" horiz-adv-x="240" />
<glyph unicode="&#x2009;" horiz-adv-x="385" />
<glyph unicode="&#x200a;" horiz-adv-x="106" />
<glyph unicode="&#x2010;" horiz-adv-x="1165" d="M184 670v80h797v-80h-797z" />
<glyph unicode="&#x2011;" horiz-adv-x="1165" d="M184 670v80h797v-80h-797z" />
<glyph unicode="&#x2012;" horiz-adv-x="1165" d="M184 670v80h797v-80h-797z" />
<glyph unicode="&#x2013;" horiz-adv-x="1763" d="M184 670v80h1395v-80h-1395z" />
<glyph unicode="&#x2014;" horiz-adv-x="2629" d="M184 670v80h2261v-80h-2261z" />
<glyph unicode="&#x2018;" horiz-adv-x="458" d="M184 838v563h90v-563h-90z" />
<glyph unicode="&#x2019;" horiz-adv-x="458" d="M184 838v563h90v-563h-90z" />
<glyph unicode="&#x201a;" horiz-adv-x="530" d="M109 -213l129 463h104l-152 -463h-81z" />
<glyph unicode="&#x201c;" horiz-adv-x="868" d="M184 838v563h90v-563h-90zM592 838v563h92v-563h-92z" />
<glyph unicode="&#x201d;" horiz-adv-x="868" d="M184 838v563h90v-563h-90zM592 838v563h92v-563h-92z" />
<glyph unicode="&#x201e;" horiz-adv-x="907" d="M109 -213l129 463h104l-152 -463h-81zM483 -213l131 463h105l-152 -463h-84z" />
<glyph unicode="&#x2022;" horiz-adv-x="790" d="M219 700q0 72 51.5 124.5t124.5 52.5q72 0 124 -52.5t52 -124.5q0 -73 -52 -124.5t-124 -51.5q-73 0 -124.5 51t-51.5 125z" />
<glyph unicode="&#x2026;" horiz-adv-x="2238" d="M184 0v240h105v-240h-105zM1067 0v240h104v-240h-104zM1950 0v240h104v-240h-104z" />
<glyph unicode="&#x202f;" horiz-adv-x="385" />
<glyph unicode="&#x2039;" horiz-adv-x="1073" d="M90 711l795 434v-96l-643 -338l643 -340v-97z" />
<glyph unicode="&#x203a;" horiz-adv-x="1073" d="M188 274v97l643 340l-643 338v96l795 -434z" />
<glyph unicode="&#x205f;" horiz-adv-x="481" />
<glyph unicode="&#x20ac;" horiz-adv-x="2099" d="M123 477l24 60h234q-8 68 -8 163q0 97 8 162h-258l24 62h240q42 252 197 364.5t450 112.5h938v-86h-938q-255 0 -385.5 -92.5t-167.5 -298.5h1114l-24 -62h-1100q-8 -98 -8 -162q0 -61 8 -163h969l-25 -60h-934q37 -205 168 -298t385 -93h938v-86h-938q-298 0 -452.5 114 t-194.5 363h-264z" />
<glyph unicode="&#x2122;" horiz-adv-x="2162" d="M141 1346v55h781v-55h-361v-619h-59v619h-361zM1069 727v674h66l387 -457l385 457h65v-674h-59v596l-373 -442h-41l-373 442v-596h-57z" />
<glyph unicode="&#xe000;" horiz-adv-x="1402" d="M0 0v1403h1403v-1403h-1403z" />
</font>
</defs>
</svg>
